{
    "asset" : {
        "generator" : "Khronos glTF Blender I/O v3.2.43",
        "version" : "2.0"
    },
    "scene" : 0,
    "scenes" : [
        {
            "name" : "Scene",
            "nodes" : [
                0
            ]
        }
    ],
    "nodes" : [
        {
            "mesh" : 0,
            "name" : "Boat1_pCube26"
        }
    ],
    "materials" : [
        {
            "doubleSided" : true,
            "name" : "Material.017",
            "pbrMetallicRoughness" : {
                "baseColorFactor" : [
                    0.3362935781478882,
                    0.3362935781478882,
                    0.3362935781478882,
                    1
                ],
                "metallicFactor" : 0.8165132403373718,
                "roughnessFactor" : 0.5
            }
        }
    ],
    "meshes" : [
        {
            "name" : "Boat1_pCube26.001",
            "primitives" : [
                {
                    "attributes" : {
                        "POSITION" : 0,
                        "NORMAL" : 1,
                        "TEXCOORD_0" : 2
                    },
                    "indices" : 3,
                    "material" : 0
                }
            ]
        }
    ],
    "accessors" : [
        {
            "bufferView" : 0,
            "componentType" : 5126,
            "count" : 1272,
            "max" : [
                1.4113694429397583,
                4.770602226257324,
                6.2522292137146
            ],
            "min" : [
                -1.4113694429397583,
                -0.538547158241272,
                -4.130878925323486
            ],
            "type" : "VEC3"
        },
        {
            "bufferView" : 1,
            "componentType" : 5126,
            "count" : 1272,
            "type" : "VEC3"
        },
        {
            "bufferView" : 2,
            "componentType" : 5126,
            "count" : 1272,
            "type" : "VEC2"
        },
        {
            "bufferView" : 3,
            "componentType" : 5123,
            "count" : 1272,
            "type" : "SCALAR"
        }
    ],
    "bufferViews" : [
        {
            "buffer" : 0,
            "byteLength" : 15264,
            "byteOffset" : 0
        },
        {
            "buffer" : 0,
            "byteLength" : 15264,
            "byteOffset" : 15264
        },
        {
            "buffer" : 0,
            "byteLength" : 10176,
            "byteOffset" : 30528
        },
        {
            "buffer" : 0,
            "byteLength" : 2544,
            "byteOffset" : 40704
        }
    ],
    "buffers" : [
        {
            "byteLength" : 43248,
            "uri" : "Boat.bin"
        }
    ]
}
