{
    "asset" : {
        "generator" : "Khronos glTF Blender I/O v3.2.43",
        "version" : "2.0"
    },
    "scene" : 0,
    "scenes" : [
        {
            "name" : "Scene",
            "nodes" : [
                2
            ]
        }
    ],
    "nodes" : [
        {
            "mesh" : 0,
            "name" : "Car1_pCylinder2"
        },
        {
            "name" : "default.001"
        },
        {
            "children" : [
                0,
                1
            ],
            "name" : "Car.obj"
        }
    ],
    "materials" : [
        {
            "doubleSided" : true,
            "name" : "Material.001",
            "pbrMetallicRoughness" : {
                "baseColorFactor" : [
                    0.800000011920929,
                    0.800000011920929,
                    0.800000011920929,
                    1
                ],
                "metallicFactor" : 0,
                "roughnessFactor" : 0.5
            }
        }
    ],
    "meshes" : [
        {
            "name" : "Car1_pCylinder2",
            "primitives" : [
                {
                    "attributes" : {
                        "POSITION" : 0,
                        "NORMAL" : 1,
                        "TEXCOORD_0" : 2
                    },
                    "indices" : 3,
                    "material" : 0
                }
            ]
        }
    ],
    "accessors" : [
        {
            "bufferView" : 0,
            "componentType" : 5126,
            "count" : 960,
            "max" : [
                27.655515670776367,
                29.141969680786133,
                39.11271286010742
            ],
            "min" : [
                -15.647917747497559,
                -3.1096959114074707,
                -35.27555465698242
            ],
            "type" : "VEC3"
        },
        {
            "bufferView" : 1,
            "componentType" : 5126,
            "count" : 960,
            "type" : "VEC3"
        },
        {
            "bufferView" : 2,
            "componentType" : 5126,
            "count" : 960,
            "type" : "VEC2"
        },
        {
            "bufferView" : 3,
            "componentType" : 5123,
            "count" : 960,
            "type" : "SCALAR"
        }
    ],
    "bufferViews" : [
        {
            "buffer" : 0,
            "byteLength" : 11520,
            "byteOffset" : 0
        },
        {
            "buffer" : 0,
            "byteLength" : 11520,
            "byteOffset" : 11520
        },
        {
            "buffer" : 0,
            "byteLength" : 7680,
            "byteOffset" : 23040
        },
        {
            "buffer" : 0,
            "byteLength" : 1920,
            "byteOffset" : 30720
        }
    ],
    "buffers" : [
        {
            "byteLength" : 32640,
            "uri" : "Car.bin"
        }
    ]
}
