{
    "asset" : {
        "generator" : "Khronos glTF Blender I/O v3.2.43",
        "version" : "2.0"
    },
    "scene" : 0,
    "scenes" : [
        {
            "name" : "Scene",
            "nodes" : [
                0
            ]
        }
    ],
    "nodes" : [
        {
            "mesh" : 0,
            "name" : "chest1_pCube11",
            "scale" : [
                0.07106608897447586,
                0.07106608897447586,
                0.07106608897447586
            ],
            "translation" : [
                -6.088549613952637,
                -0.05469168722629547,
                0
            ]
        }
    ],
    "materials" : [
        {
            "doubleSided" : true,
            "name" : "Material.024",
            "pbrMetallicRoughness" : {
                "baseColorFactor" : [
                    0.0652940571308136,
                    0.018370920792222023,
                    0.005440789274871349,
                    1
                ],
                "metallicFactor" : 0,
                "roughnessFactor" : 0.8211009502410889
            }
        },
        {
            "doubleSided" : true,
            "name" : "Material.025",
            "pbrMetallicRoughness" : {
                "baseColorFactor" : [
                    0.8000000715255737,
                    0.5198672413825989,
                    0.01287010870873928,
                    1
                ],
                "metallicFactor" : 0.60550457239151,
                "roughnessFactor" : 0.5
            }
        }
    ],
    "meshes" : [
        {
            "name" : "chest1_pCube11.002",
            "primitives" : [
                {
                    "attributes" : {
                        "POSITION" : 0,
                        "NORMAL" : 1,
                        "TEXCOORD_0" : 2
                    },
                    "indices" : 3,
                    "material" : 0
                },
                {
                    "attributes" : {
                        "POSITION" : 4,
                        "NORMAL" : 5,
                        "TEXCOORD_0" : 6
                    },
                    "indices" : 7,
                    "material" : 1
                }
            ]
        }
    ],
    "accessors" : [
        {
            "bufferView" : 0,
            "componentType" : 5126,
            "count" : 1920,
            "max" : [
                1.24672269821167,
                4.20590877532959,
                1.9289302825927734
            ],
            "min" : [
                -1.484298825263977,
                0.3351278007030487,
                -1.9289302825927734
            ],
            "type" : "VEC3"
        },
        {
            "bufferView" : 1,
            "componentType" : 5126,
            "count" : 1920,
            "type" : "VEC3"
        },
        {
            "bufferView" : 2,
            "componentType" : 5126,
            "count" : 1920,
            "type" : "VEC2"
        },
        {
            "bufferView" : 3,
            "componentType" : 5123,
            "count" : 1920,
            "type" : "SCALAR"
        },
        {
            "bufferView" : 4,
            "componentType" : 5126,
            "count" : 192,
            "max" : [
                1.0884124040603638,
                2.400604486465454,
                1.7491111755371094
            ],
            "min" : [
                -1.1142785549163818,
                1.5590200424194336,
                -1.7511820793151855
            ],
            "type" : "VEC3"
        },
        {
            "bufferView" : 5,
            "componentType" : 5126,
            "count" : 192,
            "type" : "VEC3"
        },
        {
            "bufferView" : 6,
            "componentType" : 5126,
            "count" : 192,
            "type" : "VEC2"
        },
        {
            "bufferView" : 7,
            "componentType" : 5123,
            "count" : 192,
            "type" : "SCALAR"
        }
    ],
    "bufferViews" : [
        {
            "buffer" : 0,
            "byteLength" : 23040,
            "byteOffset" : 0
        },
        {
            "buffer" : 0,
            "byteLength" : 23040,
            "byteOffset" : 23040
        },
        {
            "buffer" : 0,
            "byteLength" : 15360,
            "byteOffset" : 46080
        },
        {
            "buffer" : 0,
            "byteLength" : 3840,
            "byteOffset" : 61440
        },
        {
            "buffer" : 0,
            "byteLength" : 2304,
            "byteOffset" : 65280
        },
        {
            "buffer" : 0,
            "byteLength" : 2304,
            "byteOffset" : 67584
        },
        {
            "buffer" : 0,
            "byteLength" : 1536,
            "byteOffset" : 69888
        },
        {
            "buffer" : 0,
            "byteLength" : 384,
            "byteOffset" : 71424
        }
    ],
    "buffers" : [
        {
            "byteLength" : 71808,
            "uri" : "Chest.bin"
        }
    ]
}
