{
    "asset" : {
        "generator" : "Khronos glTF Blender I/O v3.2.43",
        "version" : "2.0"
    },
    "scene" : 0,
    "scenes" : [
        {
            "name" : "Scene",
            "nodes" : [
                0
            ]
        }
    ],
    "nodes" : [
        {
            "mesh" : 0,
            "name" : "Giant",
            "scale" : [
                0.01477031409740448,
                0.01477031409740448,
                0.01477031409740448
            ],
            "translation" : [
                -1.923482894897461,
                0,
                0
            ]
        }
    ],
    "materials" : [
        {
            "doubleSided" : true,
            "name" : "Material.026",
            "pbrMetallicRoughness" : {
                "baseColorFactor" : [
                    0.8000000715255737,
                    0.5911322832107544,
                    0.2692561745643616,
                    1
                ],
                "metallicFactor" : 0,
                "roughnessFactor" : 0.5
            }
        }
    ],
    "meshes" : [
        {
            "name" : "Giant.003",
            "primitives" : [
                {
                    "attributes" : {
                        "POSITION" : 0,
                        "NORMAL" : 1
                    },
                    "indices" : 2,
                    "material" : 0
                }
            ]
        }
    ],
    "accessors" : [
        {
            "bufferView" : 0,
            "componentType" : 5126,
            "count" : 2406,
            "max" : [
                8.51083755493164,
                53.174156188964844,
                15.49706745147705
            ],
            "min" : [
                -9.81422233581543,
                0.17313100397586823,
                -15.685030937194824
            ],
            "type" : "VEC3"
        },
        {
            "bufferView" : 1,
            "componentType" : 5126,
            "count" : 2406,
            "type" : "VEC3"
        },
        {
            "bufferView" : 2,
            "componentType" : 5123,
            "count" : 2406,
            "type" : "SCALAR"
        }
    ],
    "bufferViews" : [
        {
            "buffer" : 0,
            "byteLength" : 28872,
            "byteOffset" : 0
        },
        {
            "buffer" : 0,
            "byteLength" : 28872,
            "byteOffset" : 28872
        },
        {
            "buffer" : 0,
            "byteLength" : 4812,
            "byteOffset" : 57744
        }
    ],
    "buffers" : [
        {
            "byteLength" : 62556,
            "uri" : "Giant.bin"
        }
    ]
}
