{
    "asset" : {
        "generator" : "Khronos glTF Blender I/O v3.2.43",
        "version" : "2.0"
    },
    "extensionsUsed" : [
        "KHR_materials_transmission"
    ],
    "scene" : 0,
    "scenes" : [
        {
            "name" : "Scene",
            "nodes" : [
                2
            ]
        }
    ],
    "nodes" : [
        {
            "name" : "default.001"
        },
        {
            "mesh" : 0,
            "name" : "Magic_Staff",
            "scale" : [
                0.04731542989611626,
                0.04731542989611626,
                0.04731542989611626
            ]
        },
        {
            "children" : [
                0,
                1
            ],
            "name" : "MagicStaff.obj"
        }
    ],
    "materials" : [
        {
            "doubleSided" : true,
            "name" : "Material.003",
            "pbrMetallicRoughness" : {
                "baseColorFactor" : [
                    0.133615180850029,
                    0.02854733169078827,
                    0.006335019133985043,
                    1
                ],
                "metallicFactor" : 0
            }
        },
        {
            "doubleSided" : true,
            "extensions" : {
                "KHR_materials_transmission" : {
                    "transmissionFactor" : 0.2568807303905487
                }
            },
            "name" : "Material.004",
            "pbrMetallicRoughness" : {
                "baseColorFactor" : [
                    0.31110048294067383,
                    0,
                    0.2253635972738266,
                    1
                ],
                "metallicFactor" : 0.22018349170684814,
                "roughnessFactor" : 0.5
            }
        }
    ],
    "meshes" : [
        {
            "name" : "Magic_Staff",
            "primitives" : [
                {
                    "attributes" : {
                        "POSITION" : 0,
                        "NORMAL" : 1,
                        "TEXCOORD_0" : 2
                    },
                    "indices" : 3,
                    "material" : 0
                },
                {
                    "attributes" : {
                        "POSITION" : 4,
                        "NORMAL" : 5,
                        "TEXCOORD_0" : 6
                    },
                    "indices" : 7,
                    "material" : 1
                }
            ]
        }
    ],
    "accessors" : [
        {
            "bufferView" : 0,
            "componentType" : 5126,
            "count" : 348,
            "max" : [
                12.42261791229248,
                68.72021484375,
                2.4230120182037354
            ],
            "min" : [
                -4.264832019805908,
                0.8477929830551147,
                -2.256805896759033
            ],
            "type" : "VEC3"
        },
        {
            "bufferView" : 1,
            "componentType" : 5126,
            "count" : 348,
            "type" : "VEC3"
        },
        {
            "bufferView" : 2,
            "componentType" : 5126,
            "count" : 348,
            "type" : "VEC2"
        },
        {
            "bufferView" : 3,
            "componentType" : 5123,
            "count" : 348,
            "type" : "SCALAR"
        },
        {
            "bufferView" : 4,
            "componentType" : 5126,
            "count" : 702,
            "max" : [
                8.062165260314941,
                63.2322883605957,
                5.180232048034668
            ],
            "min" : [
                -1.4002100229263306,
                54.01346969604492,
                -3.0792739391326904
            ],
            "type" : "VEC3"
        },
        {
            "bufferView" : 5,
            "componentType" : 5126,
            "count" : 702,
            "type" : "VEC3"
        },
        {
            "bufferView" : 6,
            "componentType" : 5126,
            "count" : 702,
            "type" : "VEC2"
        },
        {
            "bufferView" : 7,
            "componentType" : 5123,
            "count" : 702,
            "type" : "SCALAR"
        }
    ],
    "bufferViews" : [
        {
            "buffer" : 0,
            "byteLength" : 4176,
            "byteOffset" : 0
        },
        {
            "buffer" : 0,
            "byteLength" : 4176,
            "byteOffset" : 4176
        },
        {
            "buffer" : 0,
            "byteLength" : 2784,
            "byteOffset" : 8352
        },
        {
            "buffer" : 0,
            "byteLength" : 696,
            "byteOffset" : 11136
        },
        {
            "buffer" : 0,
            "byteLength" : 8424,
            "byteOffset" : 11832
        },
        {
            "buffer" : 0,
            "byteLength" : 8424,
            "byteOffset" : 20256
        },
        {
            "buffer" : 0,
            "byteLength" : 5616,
            "byteOffset" : 28680
        },
        {
            "buffer" : 0,
            "byteLength" : 1404,
            "byteOffset" : 34296
        }
    ],
    "buffers" : [
        {
            "byteLength" : 35700,
            "uri" : "MagicStaff.bin"
        }
    ]
}
