{
    "asset": {
        "version": "2.0",
        "generator": "Open Asset Import Library (assimp v5.2.cf7d3637)"
    },
    "extensionsUsed": [
        "KHR_materials_volume",
        "KHR_materials_ior",
        "FB_ngon_encoding"
    ],
    "accessors": [
        {
            "bufferView": 0,
            "byteOffset": 0,
            "componentType": 5126,
            "count": 378,
            "type": "VEC3",
            "max": [
                8.062165260314942,
                63.2322883605957,
                4.686232089996338
            ],
            "min": [
                -1.4002100229263306,
                54.01346969604492,
                -3.0792739391326906
            ]
        },
        {
            "bufferView": 1,
            "byteOffset": 0,
            "componentType": 5126,
            "count": 378,
            "type": "VEC3",
            "max": [
                0.9739404916763306,
                0.9725932478904724,
                0.9937572479248047
            ],
            "min": [
                -0.8943308591842651,
                -0.9797181487083435,
                -0.965996503829956
            ]
        },
        {
            "bufferView": 2,
            "byteOffset": 0,
            "componentType": 5126,
            "count": 378,
            "type": "VEC2",
            "max": [
                1.0,
                1.0
            ],
            "min": [
                0.0,
                0.0
            ]
        },
        {
            "bufferView": 3,
            "byteOffset": 0,
            "componentType": 5125,
            "count": 378,
            "type": "SCALAR",
            "max": [
                377
            ],
            "min": [
                0
            ]
        },
        {
            "bufferView": 4,
            "byteOffset": 0,
            "componentType": 5126,
            "count": 348,
            "type": "VEC3",
            "max": [
                12.42261791229248,
                68.72021484375,
                2.4230120182037355
            ],
            "min": [
                -4.264832019805908,
                0.8477929830551148,
                -2.256805896759033
            ]
        },
        {
            "bufferView": 5,
            "byteOffset": 0,
            "componentType": 5126,
            "count": 348,
            "type": "VEC3",
            "max": [
                0.9974246621131897,
                0.9175646305084229,
                0.9973247647285461
            ],
            "min": [
                -0.9978426694869995,
                -1.0,
                -0.9994125366210938
            ]
        },
        {
            "bufferView": 6,
            "byteOffset": 0,
            "componentType": 5126,
            "count": 348,
            "type": "VEC2",
            "max": [
                0.875,
                1.0
            ],
            "min": [
                0.125,
                0.0
            ]
        },
        {
            "bufferView": 7,
            "byteOffset": 0,
            "componentType": 5125,
            "count": 348,
            "type": "SCALAR",
            "max": [
                347
            ],
            "min": [
                0
            ]
        },
        {
            "bufferView": 8,
            "byteOffset": 0,
            "componentType": 5126,
            "count": 198,
            "type": "VEC3",
            "max": [
                5.473880767822266,
                60.96908187866211,
                3.804002046585083
            ],
            "min": [
                1.6343889236450196,
                56.95523452758789,
                -0.6768199801445007
            ]
        },
        {
            "bufferView": 9,
            "byteOffset": 0,
            "componentType": 5126,
            "count": 198,
            "type": "VEC3",
            "max": [
                0.9765727519989014,
                0.9904007315635681,
                0.9619712233543396
            ],
            "min": [
                -0.9627413749694824,
                -0.9938049912452698,
                -0.9452747702598572
            ]
        },
        {
            "bufferView": 10,
            "byteOffset": 0,
            "componentType": 5125,
            "count": 198,
            "type": "SCALAR",
            "max": [
                197
            ],
            "min": [
                0
            ]
        },
        {
            "bufferView": 11,
            "byteOffset": 0,
            "componentType": 5126,
            "count": 126,
            "type": "VEC3",
            "max": [
                6.294750213623047,
                62.89865493774414,
                5.180232048034668
            ],
            "min": [
                0.5978360176086426,
                54.19313430786133,
                -0.7136549949645996
            ]
        },
        {
            "bufferView": 12,
            "byteOffset": 0,
            "componentType": 5126,
            "count": 126,
            "type": "VEC3",
            "max": [
                0.9406071305274963,
                0.9011372327804565,
                0.9005787372589111
            ],
            "min": [
                -0.979885995388031,
                -0.9333882331848145,
                -0.9171233773231506
            ]
        },
        {
            "bufferView": 13,
            "byteOffset": 0,
            "componentType": 5126,
            "count": 126,
            "type": "VEC2",
            "max": [
                1.0,
                1.0
            ],
            "min": [
                0.0,
                0.0
            ]
        },
        {
            "bufferView": 14,
            "byteOffset": 0,
            "componentType": 5125,
            "count": 126,
            "type": "SCALAR",
            "max": [
                125
            ],
            "min": [
                0
            ]
        }
    ],
    "buffers": [
        {
            "byteLength": 36216,
            "uri": "result.bin"
        }
    ],
    "bufferViews": [
        {
            "buffer": 0,
            "byteOffset": 0,
            "byteLength": 4536,
            "target": 34962
        },
        {
            "buffer": 0,
            "byteOffset": 4536,
            "byteLength": 4536,
            "target": 34962
        },
        {
            "buffer": 0,
            "byteOffset": 9072,
            "byteLength": 3024,
            "target": 34962
        },
        {
            "buffer": 0,
            "byteOffset": 12096,
            "byteLength": 1512,
            "target": 34963
        },
        {
            "buffer": 0,
            "byteOffset": 13608,
            "byteLength": 4176,
            "target": 34962
        },
        {
            "buffer": 0,
            "byteOffset": 17784,
            "byteLength": 4176,
            "target": 34962
        },
        {
            "buffer": 0,
            "byteOffset": 21960,
            "byteLength": 2784,
            "target": 34962
        },
        {
            "buffer": 0,
            "byteOffset": 24744,
            "byteLength": 1392,
            "target": 34963
        },
        {
            "buffer": 0,
            "byteOffset": 26136,
            "byteLength": 2376,
            "target": 34962
        },
        {
            "buffer": 0,
            "byteOffset": 28512,
            "byteLength": 2376,
            "target": 34962
        },
        {
            "buffer": 0,
            "byteOffset": 30888,
            "byteLength": 792,
            "target": 34963
        },
        {
            "buffer": 0,
            "byteOffset": 31680,
            "byteLength": 1512,
            "target": 34962
        },
        {
            "buffer": 0,
            "byteOffset": 33192,
            "byteLength": 1512,
            "target": 34962
        },
        {
            "buffer": 0,
            "byteOffset": 34704,
            "byteLength": 1008,
            "target": 34962
        },
        {
            "buffer": 0,
            "byteOffset": 35712,
            "byteLength": 504,
            "target": 34963
        }
    ],
    "materials": [
        {
            "name": "DefaultMaterial",
            "pbrMetallicRoughness": {
                "baseColorFactor": [
                    0.6000000238418579,
                    0.6000000238418579,
                    0.6000000238418579,
                    1.0
                ],
                "metallicFactor": 0.0
            },
            "extensions": {
                "KHR_materials_ior": {
                    "ior": 1.0
                }
            }
        },
        {
            "name": "lambert7SG",
            "pbrMetallicRoughness": {
                "baseColorFactor": [
                    0.6000000238418579,
                    0.6000000238418579,
                    0.6000000238418579,
                    1.0
                ],
                "metallicFactor": 0.0
            },
            "extensions": {
                "KHR_materials_ior": {
                    "ior": 1.0
                }
            }
        },
        {
            "name": "lambert6SG",
            "pbrMetallicRoughness": {
                "baseColorFactor": [
                    0.6000000238418579,
                    0.6000000238418579,
                    0.6000000238418579,
                    1.0
                ],
                "metallicFactor": 0.0
            },
            "extensions": {
                "KHR_materials_ior": {
                    "ior": 1.0
                }
            }
        },
        {
            "name": "phong3SG",
            "pbrMetallicRoughness": {
                "baseColorFactor": [
                    0.6000000238418579,
                    0.6000000238418579,
                    0.6000000238418579,
                    1.0
                ],
                "metallicFactor": 0.0
            },
            "extensions": {
                "KHR_materials_ior": {
                    "ior": 1.0
                }
            }
        }
    ],
    "meshes": [
        {
            "name": "Magic_Staff",
            "primitives": [
                {
                    "extensions": {
                        "FB_ngon_encoding": {}
                    },
                    "mode": 4,
                    "material": 1,
                    "indices": 3,
                    "attributes": {
                        "POSITION": 0,
                        "NORMAL": 1,
                        "TEXCOORD_0": 2
                    }
                },
                {
                    "extensions": {
                        "FB_ngon_encoding": {}
                    },
                    "mode": 4,
                    "material": 2,
                    "indices": 7,
                    "attributes": {
                        "POSITION": 4,
                        "NORMAL": 5,
                        "TEXCOORD_0": 6
                    }
                },
                {
                    "extensions": {
                        "FB_ngon_encoding": {}
                    },
                    "mode": 4,
                    "material": 3,
                    "indices": 10,
                    "attributes": {
                        "POSITION": 8,
                        "NORMAL": 9
                    }
                },
                {
                    "extensions": {
                        "FB_ngon_encoding": {}
                    },
                    "mode": 4,
                    "material": 1,
                    "indices": 14,
                    "attributes": {
                        "POSITION": 11,
                        "NORMAL": 12,
                        "TEXCOORD_0": 13
                    }
                }
            ]
        }
    ],
    "nodes": [
        {
            "name": "MagicStaff.obj",
            "children": [
                1,
                2
            ]
        },
        {
            "name": "default"
        },
        {
            "name": "Magic_Staff",
            "mesh": 0
        }
    ],
    "scenes": [
        {
            "nodes": [
                0
            ]
        }
    ],
    "scene": 0
}